<svg width="24" height="24" viewBox="0 0 24 24" fill="none" xmlns="http://www.w3.org/2000/svg">
<g clip-path="url(#clip0_2510_34)">
<rect width="24" height="24" rx="8" fill="white"/>
<path fill-rule="evenodd" clip-rule="evenodd" d="M12 0C6.3432 0 3.5148 0 1.7568 1.7568C0 3.516 0 6.3432 0 12C0 17.6568 0 20.4852 1.7568 22.242C3.516 24 6.3432 24 12 24C17.6568 24 20.4852 24 22.242 22.242C24 20.4864 24 17.6568 24 12C24 6.3432 24 3.5148 22.242 1.7568C20.4864 0 17.6568 0 12 0ZM10.9332 4.4076C11.6074 4.07397 12.3494 3.9004 13.1016 3.9004C13.8538 3.9004 14.5958 4.07397 15.27 4.4076C15.948 4.7436 16.5564 5.3364 17.4648 6.2208L17.5848 6.3384L17.7096 6.4584C18.6144 7.3404 19.2252 7.9344 19.5732 8.598C19.9195 9.25782 20.1004 9.99184 20.1004 10.737C20.1004 11.4822 19.9195 12.2162 19.5732 12.876C19.2252 13.5408 18.6144 14.1348 17.7096 15.0156L17.5848 15.1356L14.9412 17.7108L14.9004 17.7504C14.6844 17.9604 14.5164 18.1236 14.3472 18.2508C13.78 18.6726 13.092 18.9003 12.3852 18.9003C11.6784 18.9003 10.9904 18.6726 10.4232 18.2508C10.2289 18.0957 10.0446 17.9286 9.8712 17.7504L9.8292 17.7108L9.7884 17.67C9.5724 17.46 9.4044 17.2968 9.2736 17.13C8.83597 16.5775 8.59784 15.8933 8.59784 15.1884C8.59784 14.4835 8.83597 13.7993 9.2736 13.2468C9.4056 13.08 9.5736 12.9168 9.7884 12.7068L9.8292 12.666L11.868 10.6824C12.0396 10.5189 12.2688 10.4298 12.5058 10.4343C12.7428 10.4388 12.9684 10.5366 13.1337 10.7065C13.299 10.8764 13.3906 11.1046 13.3886 11.3416C13.3867 11.5786 13.2913 11.8053 13.1232 11.9724L11.0856 13.956C10.8096 14.226 10.7352 14.3004 10.6872 14.3604C10.4995 14.5956 10.3972 14.8875 10.3972 15.1884C10.3972 15.4893 10.4995 15.7812 10.6872 16.0164C10.7352 16.0764 10.8084 16.152 11.0856 16.4208C11.3616 16.6896 11.4396 16.7616 11.502 16.8084C11.7579 16.9973 12.0677 17.0993 12.3858 17.0993C12.7039 17.0993 13.0137 16.9973 13.2696 16.8084C13.332 16.7616 13.41 16.6884 13.686 16.4208L16.3296 13.8468C17.406 12.798 17.7816 12.4176 17.9784 12.042C18.1899 11.6397 18.3004 11.1921 18.3004 10.7376C18.3004 10.2831 18.1899 9.83547 17.9784 9.4332C17.7816 9.0576 17.406 8.6772 16.3296 7.6284C15.2556 6.582 14.8608 6.2136 14.4696 6.0204C14.0442 5.81026 13.5761 5.70094 13.1016 5.70094C12.6271 5.70094 12.159 5.81026 11.7336 6.0204C11.3424 6.2136 10.9476 6.582 9.8736 7.6284L7.188 10.242C6.5844 10.83 6.3708 11.0436 6.2316 11.238C5.88637 11.7167 5.70059 12.2918 5.70059 12.882C5.70059 13.4722 5.88637 14.0473 6.2316 14.526C6.3708 14.7204 6.5844 14.934 7.188 15.522C7.27418 15.6041 7.34322 15.7024 7.39114 15.8113C7.43905 15.9203 7.46489 16.0376 7.46716 16.1566C7.46942 16.2756 7.44807 16.3938 7.40433 16.5045C7.3606 16.6152 7.29535 16.7161 7.21236 16.8014C7.12937 16.8867 7.03029 16.9546 6.92085 17.0014C6.81142 17.0481 6.6938 17.0727 6.5748 17.0737C6.4558 17.0747 6.33779 17.0521 6.22759 17.0072C6.11739 16.9622 6.01719 16.8959 5.9328 16.812L5.8632 16.7448C5.3544 16.2492 5.0124 15.9168 4.7676 15.5748C4.20343 14.7905 3.89991 13.8487 3.89991 12.8826C3.89991 11.9165 4.20343 10.9747 4.7676 10.1904C5.0124 9.8484 5.3544 9.516 5.8632 9.0204L5.9328 8.9532L8.6184 6.3384L8.7384 6.2208C9.6468 5.3364 10.2552 4.7436 10.9344 4.4076" fill="#7828C8"/>
</g>
<defs>
<clipPath id="clip0_2510_34">
<rect width="24" height="24" rx="8" fill="white"/>
</clipPath>
</defs>
</svg>
